<?xml version="1.0" standalone="no"?>
<!DOCTYPE svg PUBLIC "-//W3C//DTD SVG 20010904//EN"
 "http://www.w3.org/TR/2001/REC-SVG-20010904/DTD/svg10.dtd">
<svg version="1.0" xmlns="http://www.w3.org/2000/svg"
 width="700.000000pt" height="700.000000pt" viewBox="0 0 700.000000 700.000000"
 preserveAspectRatio="xMidYMid meet">
<metadata>
Created by potrace 1.11, written by Peter Selinger 2001-2013
</metadata>
<g transform="translate(0.000000,700.000000) scale(0.100000,-0.100000)"
fill="#000000" stroke="none">
<path d="M894 6925 c-127 -19 -266 -69 -371 -135 -243 -153 -421 -429 -450
-700 -10 -84 -10 -5085 0 -5170 46 -423 386 -775 814 -844 61 -10 643 -12
2638 -11 2377 1 2565 3 2637 18 232 52 464 203 584 380 16 23 32 44 35 47 12
9 82 155 101 210 55 157 51 -22 53 2750 1 2596 1 2621 -34 2750 -31 118 -97
248 -175 345 -42 53 -166 175 -178 175 -4 0 -13 6 -20 13 -62 62 -303 159
-438 177 -8 1 -1162 3 -2565 4 -1927 2 -2570 0 -2631 -9z"/>
</g>
</svg>
